<mxfile host="app.diagrams.net" modified="2023-09-28T01:57:37.456Z" agent="Mozilla/5.0 (Macintosh; Intel Mac OS X 10_15_7) AppleWebKit/537.36 (KHTML, like Gecko) Chrome/116.0.0.0 Safari/537.36" version="21.8.2" etag="22Rn34s91aflurNggbY6" type="github">
  <diagram name="Page-1" id="6F8fx57_sQkvVMvVczYJ">
    <mxGraphModel>
      <root>
        <mxCell id="0" />
        <mxCell id="1" parent="0" />
      </root>
    </mxGraphModel>
  </diagram>
</mxfile>
